<svg width="160" height="160" version="1.1" viewBox="0 0 42.33 42.33" xmlns="http://www.w3.org/2000/svg">
	<style>
		.colordef-primary {
			fill: #000;
		}
		@media (prefers-color-scheme: dark) {
			.colordef-primary {
				fill: #fff;
			}
		}
	</style>
	<g transform="translate(-41.37 -24.9)">
		<g transform="translate(-1.653 7.655)" class="colordef-primary">
			<path
				d="m44.74 55.02q-0.6604 0-1.067-0.1524-0.4064-0.1016-0.4064-0.4064 0-0.6096 1.676-0.9144 1.93-0.3556 2.794-1.168 0.9144-0.8128 0.9144-2.692v-21.44q0-2.286-0.6096-3.505-0.5588-1.219-2.489-1.575-0.8636-0.1524-1.27-0.4064t-0.4064-0.6096q0-0.3048 0.4064-0.4064 0.4064-0.1524 1.067-0.1524 1.372 0 2.032 0 0.7112 0 1.321 0.0508 0.6096 0 1.626 0t2.032-0.0508q1.067-0.1016 1.981-0.1524 0.9144-0.1016 1.626-0.1016 5.791 0 9.296 2.388 3.556 2.388 3.556 6.655 0 3.099-1.219 5.74-1.219 2.591-3.759 4.166-2.489 1.575-6.401 1.575-1.118 0-1.727-0.3048-0.5588-0.3556-0.5588-0.6604 0-0.2032 0.254-0.4572 0.3048-0.254 0.5588-0.254t0.762 0.0508q0.5588 0.0508 1.575 0.0508 3.048 0 4.572-2.54 1.575-2.54 1.575-7.01 0-4.064-2.388-5.994-2.388-1.981-6.096-1.981-1.422 0-2.337 0.508-0.9144 0.4572-0.9144 1.626v24.23q0 1.829 0.762 2.946t2.642 1.473q0.8636 0.1524 1.27 0.3556t0.4064 0.5588q0 0.3048-0.4064 0.4064-0.4064 0.1524-1.067 0.1524-1.372 0-2.134-0.1016-0.7112-0.1016-1.321-0.1524-0.5588-0.1016-1.524-0.1016-1.27 0-2.286 0.1016-0.9652 0.0508-1.981 0.1524-0.9652 0.1016-2.337 0.1016z"
				class="colordef-primary" />
			<path
				d="m67.29 54.92q-0.508 0-0.762-0.1524-0.254-0.1016-0.254-0.4064 0-0.4064 0.3048-0.508 0.3048-0.1524 0.8636-0.3048 0.9652-0.254 1.422-0.7112 0.508-0.508 0.508-1.219v-10.92q0-1.372-0.4064-2.388t-1.676-1.27q-0.2032-0.0508-0.3556-0.254t-0.1524-0.4064q0-0.508 0.4572-0.6096 1.321-0.4064 2.743-1.168 1.473-0.8128 2.286-1.321 0.3048-0.2032 0.4572-0.254 0.2032-0.1016 0.3048-0.1016 0.254 0 0.254 0.3556 0 0.1524-0.0508 0.762 0 0.6096-0.0508 1.422 0 0.8128-0.0508 1.626 0 0.1016 0.1016 0.1016 0.8128-1.016 1.778-1.778 1.016-0.762 2.032-1.219 1.067-0.4572 2.032-0.4572 1.067 0 1.727 0.4572 0.7112 0.4572 0.7112 1.168 0 0.508-0.3048 1.118-0.254 0.6096-0.7112 1.067t-0.9652 0.4572q-0.3048 0-0.6604-0.1016-0.3556-0.1524-0.762-0.3556-0.4064-0.1524-0.8128-0.3048t-0.8128-0.1524q-1.219 0-2.388 0.8636-1.118 0.8636-1.118 3.404v10.26q0 0.6604 0.7112 1.118 0.7112 0.4064 1.981 0.8128 0.5588 0.1524 0.8636 0.3048t0.3048 0.508q0 0.5588-1.016 0.5588-1.524 0-2.337-0.1524-0.762-0.1016-2.083-0.1016-0.8636 0-1.422 0.0508-0.508 0.0508-1.118 0.1016-0.5588 0.1016-1.575 0.1016z"
				class="colordef-primary" />
			<path
				d="m82.31 55.48q-1.118 0-1.981-0.8128-0.8128-0.8636-0.8128-1.981 0-1.168 0.8128-1.981 0.8636-0.8128 1.981-0.8128 1.168 0 1.981 0.8128 0.8128 0.8128 0.8128 1.981 0 1.118-0.8128 1.981-0.8128 0.8128-1.981 0.8128z"
				class="colordef-primary" />
		</g>
	</g>
</svg>
